M48
; DRILL file {KiCad (5.1.2)-2} date 18/06/2019 7:34:02 pm
; FORMAT={-:-/ absolute / inch / decimal}
; #@! TF.CreationDate,2019-06-18T19:34:02+12:00
; #@! TF.GenerationSoftware,Kicad,Pcbnew,(5.1.2)-2
FMAT,2
INCH
T1C0.0197
T2C0.0276
T3C0.0300
T4C0.0394
T5C0.0197
T6C0.0236
T7C0.0591
%
G90
G05
T1
X3.6102Y-4.7126
X3.6319Y-4.0413
X3.6693Y-3.3543
X3.7087Y-5.1654
X3.7283Y-2.4685
X3.7992Y-1.9488
X3.8465Y-4.8307
X3.8465Y-5.0079
X3.9055Y-3.6693
X3.9449Y-3.9843
X3.9449Y-4.2992
X3.9843Y-3.6693
X4.0039Y-3.8465
X4.0039Y-3.8937
X4.0039Y-4.2402
X4.0039Y-4.8701
X4.0236Y-3.0394
X4.0433Y-4.3583
X4.1024Y-4.002
X4.1024Y-4.8504
X4.1024Y-5.0276
X4.122Y-3.6496
X4.1614Y-3.1772
X4.2008Y-2.9803
X4.2008Y-4.8307
X4.2795Y-1.8189
X4.2795Y-1.9173
X4.2795Y-2.0354
X4.2795Y-2.9803
X4.3386Y-1.8189
X4.3386Y-3.7087
X4.378Y-1.9173
X4.378Y-2.0157
X4.378Y-3.5512
X4.4173Y-2.3307
X4.437Y-2.0748
X4.4665Y-3.4724
X4.4764Y-2.3504
X4.4764Y-5.2736
X4.4843Y-5.1102
X4.5059Y-2.9409
X4.5157Y-1.9173
X4.5354Y-4.8701
X4.5453Y-2.439
X4.5551Y-3.7087
X4.5748Y-3.9055
X4.6142Y-2.6555
X4.6929Y-2.2126
X4.6929Y-3.8465
X4.7126Y-3.2657
X4.7205Y-4.7402
X4.8504Y-3.7283
X5.1811Y-5.2717
X5.2008Y-5.122
X5.2638Y-4.6732
X5.2638Y-4.9882
X5.3228Y-4.5354
X5.3228Y-4.8701
X5.3228Y-5.0866
X5.4213Y-4.8307
X5.4803Y-4.4764
X5.8543Y-5.1142
X5.874Y-4.8701
X5.874Y-5.3425
X5.9488Y-4.7835
X6.4646Y-3.6496
X6.5433Y-4.8307
X6.5709Y-5.2677
X6.5827Y-5.0276
X6.5906Y-5.1181
X6.622Y-4.7126
X6.6614Y-4.9488
X6.6811Y-5.0866
X6.7008Y-4.7913
X6.7795Y-4.8898
T2
X3.7874Y-1.622
X3.9646Y-1.622
X3.2067Y-1.622
X3.3839Y-1.622
T3
X3.1476Y-2.1535
X3.1476Y-4.9094
X3.2461Y-2.1535
X3.3445Y-2.1535
X3.3445Y-4.9094
X3.4429Y-2.1535
T4
X4.5748Y-4.3189
X4.5748Y-4.4173
X4.5748Y-4.5157
X5.1457Y-4.3189
X5.1457Y-4.5157
X6.563Y-3.7283
X6.563Y-3.8283
X6.563Y-3.9283
X6.663Y-3.7283
X6.663Y-3.8283
X6.663Y-3.9283
X5.3031Y-4.0039
X5.4031Y-4.0039
X5.5031Y-4.0039
X5.6031Y-4.0039
X3.4142Y-5.2953
X3.5142Y-5.2953
X3.6142Y-5.2953
X3.7142Y-5.2953
X3.8142Y-5.2953
X3.9142Y-5.2953
X4.0142Y-5.2953
X4.1142Y-5.2953
X5.7559Y-4.3189
X5.7559Y-4.4173
X5.7559Y-4.5157
X6.3268Y-4.3189
X6.3268Y-4.5157
T6
X4.3976Y-1.7067
X4.5551Y-1.7067
T1
G00X3.7382Y-1.7343
M15
G01X3.7382Y-1.7067
M16
G05
G00X4.0138Y-1.7343
M15
G01X4.0138Y-1.7067
M16
G05
G00X3.1575Y-1.7343
M15
G01X3.1575Y-1.7067
M16
G05
G00X3.4331Y-1.7343
M15
G01X3.4331Y-1.7067
M16
G05
T5
G00X3.2717Y-2.5965
M15
G01X3.3189Y-2.5965
M16
G05
G00X3.2717Y-4.4665
M15
G01X3.3189Y-4.4665
M16
G05
T7
G00X6.0256Y-4.1969
M15
G01X6.0768Y-4.1969
M16
G05
G00X6.0256Y-4.6378
M15
G01X6.0768Y-4.6378
M16
G05
G00X4.8445Y-4.1969
M15
G01X4.8957Y-4.1969
M16
G05
G00X4.8445Y-4.6378
M15
G01X4.8957Y-4.6378
M16
G05
T0
M30
